<svg id="Capa_1" enable-background="new 0 0 506.365 506.365" height="32" viewBox="0 0 506.365 506.365" width="32" xmlns="http://www.w3.org/2000/svg"><g><g id="solid_13_"><path d="m322.63 471.428h-291.633c4.176 20.31 22.043 34.895 42.778 34.921h244.444c4.034-.003 8.049-.564 11.93-1.666-4.914-7.233-7.534-15.78-7.519-24.524z"/><path d="m106.244 453.967h179.505l17.275-51.486c5.083-15.15 9.998-30.952 14.609-46.962 1.077-3.739 4.498-6.314 8.389-6.314h53.308c43.394 0 78.571-35.178 78.571-78.571s-35.178-78.571-78.571-78.571h-339.275c9.59 71.533 25.968 141.99 48.912 210.418zm225.038-150.429c5.42-22.837 10.192-46.161 14.186-69.307.722-4.186 4.352-7.246 8.6-7.247h25.261c24.108 0 43.651 19.543 43.651 43.651s-19.543 43.651-43.651 43.651h-39.553c-4.822 0-8.73-3.908-8.731-8.73.001-.68.081-1.357.237-2.018zm-208.827 95.116c1.016 2.849 2.073 5.741 3.145 8.597 1.693 4.515-.595 9.547-5.109 11.24-4.515 1.693-9.547-.595-11.24-5.109-1.104-2.946-2.195-5.928-3.241-8.863-1.584-4.554.823-9.53 5.377-11.114 4.504-1.567 9.432.77 11.068 5.249zm-33.375-92.951c4.735-.888 9.293 2.231 10.18 6.966.001.006.002.012.003.018 3.229 17.311 7.319 34.665 12.157 51.583 1.342 4.631-1.323 9.473-5.954 10.816-4.631 1.342-9.473-1.323-10.816-5.954-.006-.02-.012-.04-.017-.06-4.987-17.442-9.204-35.335-12.533-53.179-.888-4.739 2.234-9.301 6.973-10.189.002 0 .005 0 .007-.001z"/><path d="m460.302 447.25 7.38-7.38c-10.198-10.228-26.757-10.251-36.985-.053-.014.014-.029.029-.043.043l-21.778 21.778c-5.293 5.257-8.074 12.533-7.639 19.98l5.938-5.938c8.467-8.485 19.264-14.263 31.02-16.603 8.378-1.664 16.073-5.781 22.107-11.827z"/><path d="m475.323 456.914-2.677 2.677c-8.469 8.486-19.267 14.264-31.025 16.604-8.375 1.667-16.067 5.783-22.099 11.828l-10.639 10.639c2.871 2.877 6.372 5.048 10.226 6.339 9.41 3.171 19.805.716 26.803-6.329l21.778-21.778c5.29-5.26 8.07-12.535 7.633-19.98z"/><path d="m366.281 423.184c-14.442-.022-26.168 11.667-26.19 26.11v.066 30.799c-.023 7.459 3.156 14.57 8.73 19.527v-8.396c-.012-11.988 3.537-23.709 10.197-33.676 4.743-7.102 7.271-15.452 7.263-23.992z"/><path d="m383.741 429.833v3.787c.011 11.988-3.537 23.709-10.196 33.678-4.745 7.101-7.273 15.451-7.265 23.99v15.045c8.03.018 15.62-3.664 20.576-9.983-.314-.786-.605-1.582-.873-2.39-4.584-13.589-2.155-28.565 6.49-40.008v-4.593c.022-7.459-3.158-14.57-8.732-19.526z"/><path d="m99.965 157.143c4.822 0 8.73-3.909 8.73-8.73.011-9.638 7.822-17.449 17.46-17.46h87.301c24.108 0 43.651-19.543 43.651-43.651s-19.543-43.651-43.651-43.651h-28.311c-13.287-.015-24.055-10.783-24.07-24.07v-10.851c0-4.822-3.909-8.73-8.73-8.73s-8.73 3.909-8.73 8.73v10.85c.026 22.926 18.605 41.505 41.53 41.53h28.311c14.465 0 26.19 11.726 26.19 26.19s-11.726 26.19-26.19 26.19h-87.301c-19.277.022-34.899 15.643-34.921 34.921.001 4.823 3.91 8.732 8.731 8.732z"/><path d="m117.426 34.921c4.822 0 8.73-3.909 8.73-8.73v-17.461c0-4.822-3.909-8.73-8.73-8.73s-8.73 3.909-8.73 8.73v17.46c-.001 4.822 3.908 8.731 8.73 8.731z"/><path d="m117.426 69.841c4.822 0 8.73-3.909 8.73-8.73v-8.73c0-4.822-3.909-8.73-8.73-8.73s-8.73 3.909-8.73 8.73v8.73c-.001 4.822 3.908 8.73 8.73 8.73z"/><path d="m65.045 157.143c4.822 0 8.73-3.909 8.73-8.73v-8.73c0-4.822-3.909-8.73-8.73-8.73s-8.73 3.909-8.73 8.73v8.73c0 4.821 3.908 8.73 8.73 8.73z"/><path d="m388.06 122.222c4.822 0 8.73-3.909 8.73-8.73v-26.19c0-4.822-3.909-8.73-8.73-8.73-4.822 0-8.73 3.909-8.73 8.73v26.19c0 4.821 3.909 8.73 8.73 8.73z"/><path d="m65.045 113.492c4.822 0 8.73-3.909 8.73-8.73v-26.19c0-4.822-3.909-8.73-8.73-8.73s-8.73 3.909-8.73 8.73v26.19c0 4.821 3.908 8.73 8.73 8.73z"/><path d="m388.06 157.143c4.822 0 8.73-3.909 8.73-8.73v-8.73c0-4.822-3.909-8.73-8.73-8.73-4.822 0-8.73 3.909-8.73 8.73v8.73c0 4.821 3.909 8.73 8.73 8.73z"/><path d="m265.838 157.143c4.822 0 8.73-3.909 8.73-8.73.005-4.819 3.911-8.725 8.73-8.73h34.921c24.108 0 43.651-19.543 43.651-43.651s-19.543-43.651-43.651-43.651c-9.638-.011-17.449-7.822-17.46-17.46v-26.191c0-4.822-3.909-8.73-8.73-8.73s-8.73 3.909-8.73 8.73v26.19c.022 19.277 15.643 34.899 34.921 34.921 14.465 0 26.19 11.726 26.19 26.19s-11.726 26.19-26.19 26.19h-34.921c-14.458.017-26.174 11.733-26.19 26.19-.001 4.823 3.908 8.732 8.729 8.732z"/></g></g></svg>